<svg width="152" height="27" xmlns="http://www.w3.org/2000/svg"><g fill="#FFF" fill-rule="nonzero"><path d="M47.81 7.9h-2.96l-4.56 9.2-4.55-9.2h-2.97V24h3.08v-9.89l3.02 5.98h2.85l3.01-5.98V24h3.08V7.9zm8.42 16.38c3.59 0 5.64-2.35 5.64-5.4v-1.71c0-3.06-2.05-5.4-5.64-5.4s-5.63 2.34-5.63 5.4v1.7c0 3.06 2.04 5.4 5.63 5.4zm2.6-5.2c0 1.56-.83 2.74-2.6 2.74s-2.6-1.18-2.6-2.74v-2.12c0-1.56.83-2.74 2.6-2.74s2.6 1.18 2.6 2.74v2.12zM64.42 24h3.13v-7.08c0-1.61.9-2.44 2.3-2.44 1.52 0 2.18.99 2.18 2.37V24h3.13v-7.66c0-2.87-1.63-4.58-4.23-4.58-1.7 0-2.92.6-3.52 1.7v-1.42h-3V24zm76 0h3.13v-7.08c0-1.61.9-2.44 2.3-2.44 1.52 0 2.18.99 2.18 2.37V24h3.13v-7.66c0-2.87-1.63-4.58-4.23-4.58-1.7 0-2.92.6-3.52 1.7v-1.42h-3V24zm-58.13 0h2.16v-2.53H83.2c-.83 0-1.13-.32-1.13-1.1v-5.8h2.55v-2.53h-2.55V8.77h-3.15v3.27h-1.7v2.53h1.7v6.03c0 2.11 1.08 3.4 3.38 3.4zm9.7.28c2.65 0 4.79-1.6 5.2-3.78h-2.73c-.3.83-1.13 1.52-2.46 1.52-1.82 0-2.53-1.22-2.53-2.62v-.3h7.82V17c0-2.87-1.8-5.24-5.34-5.24-3.59 0-5.52 2.3-5.52 5.55v1.63c0 3.36 2.18 5.34 5.57 5.34zm-2.52-7.5c0-1.61.69-2.8 2.48-2.8 1.68 0 2.46 1.12 2.46 2.61v.3h-4.94v-.11zm21.53 7.5c2.64 0 4.78-1.6 5.2-3.78h-2.74c-.3.83-1.13 1.52-2.46 1.52-1.82 0-2.53-1.22-2.53-2.62v-.3h7.82V17c0-2.87-1.8-5.24-5.34-5.24-3.59 0-5.52 2.3-5.52 5.55v1.63c0 3.36 2.18 5.34 5.57 5.34zm-2.53-7.5c0-1.61.69-2.8 2.48-2.8 1.68 0 2.46 1.12 2.46 2.61v.3h-4.94v-.11zM131.84 24h3.13v-5.52c0-2.41 1.1-3.43 3.15-3.43h.64v-3.1h-.37c-1.79 0-3.2.62-3.58 2.41v-2.32h-2.97V24zm-8.91.28c1.38 0 2.9-.58 3.45-1.38V24h3v-7.64c0-2.78-2.04-4.6-5.03-4.6-2.57 0-4.44 1.25-5.13 3.57h2.9c.32-.64.99-1.13 2.07-1.13 1.29 0 2.07.83 2.07 1.93v1.64a4.8 4.8 0 00-3.04-1.02c-2.87 0-4.83 1.2-4.83 3.8 0 2.32 1.84 3.73 4.54 3.73zm.8-2.07c-1.31 0-2.3-.65-2.3-1.75s.92-1.7 2.4-1.7c1.4 0 2.43.62 2.43 1.67 0 1.02-1.15 1.78-2.53 1.78zM99.77 24h3.13V7.21h-3.13V24zM22.46 5.71L7.08 21l-1.14-1.14L22.46 3.44V5.7zM11.04 24.94L9.9 23.8l9.6-9.54v-.01 2.27l-8.46 8.42zm-3.12-3.11l10.7-10.65 2.02-2.03v2.28l-.76.77-.38.38-.13.14-10.3 10.25-1.15-1.14zM22.46 1.77l-7.09 7.05H3.3L0 15.62l4.27 4.24.83.83 1.15 1.14.83.83 1.15 1.14 2.81 2.8 9.64-9.58V12.7l1.14-1.16V7.98l.64-.6 1.18-1.18V.6l-1.18 1.17z"/></g></svg>
