<svg width="35" height="38" viewBox="0 0 35 38" fill="none" xmlns="http://www.w3.org/2000/svg">
<path fill-rule="evenodd" clip-rule="evenodd" d="M32.6353 0.955265L22.2573 11.347H5.38204C4.93709 11.347 4.4199 11.6721 4.22733 12.0722L0.0988525 20.6492C-0.093927 21.0497 0.00363719 21.6286 0.318571 21.9441L10.123 31.7661L11.7985 33.4433L13.02 34.6678L15.3554 37.0072C15.6694 37.3217 16.1778 37.3223 16.4922 37.0074L29.4601 24.0139C29.7739 23.6995 30.0283 23.084 30.0283 22.6381V17.0766L31.1466 15.9317C31.4569 15.614 31.7084 14.996 31.7084 14.5512V10.1106L32.6353 9.21962L33.7964 8.05556C34.1106 7.7406 34.3653 7.12495 34.3653 6.68181V0.833449C34.3653 -0.0558115 33.8556 -0.26642 33.2282 0.361644L32.6353 0.955265ZM11.2883 30.5414L27.0144 14.8853L29.9774 11.8994V15.2463L28.8547 16.3818L28.3016 16.9423L28.1061 17.1419L12.9641 32.2137L11.2883 30.5414ZM15.8982 35.1389L14.2136 33.4618L28.3403 19.3894L28.3523 19.3751V22.7294L15.8982 35.1389ZM32.7402 6.79303L28.3979 11.1286L27.6246 11.8987L26.3255 13.1965L10.2006 29.2884L8.52556 27.6174L23.0658 13.1062L32.7402 3.44867V6.79303Z" fill="#EC1115"/>
</svg>
